<svg width="16" height="16" viewBox="0 0 16 16" fill="none" xmlns="http://www.w3.org/2000/svg">
<g id="fi-rs-sign-out 1" clip-path="url(#clip0_90_169)">
<g id="01 align center">
<path id="Vector" d="M1.33333 14V2C1.33333 1.82319 1.40357 1.65362 1.5286 1.5286C1.65362 1.40357 1.82319 1.33333 2 1.33333H5.33333V0H2C1.46957 0 0.960859 0.210714 0.585786 0.585786C0.210714 0.960859 0 1.46957 0 2L0 14C0 14.5304 0.210714 15.0391 0.585786 15.4142C0.960859 15.7893 1.46957 16 2 16H5.33333V14.6667H2C1.82319 14.6667 1.65362 14.5964 1.5286 14.4714C1.40357 14.3464 1.33333 14.1768 1.33333 14Z" fill="white"/>
<path id="Vector_2" d="M15.416 6.58602L12.3587 3.52869L11.416 4.47135L14.2586 7.31402L3.33398 7.33335V8.66669L14.296 8.64735L11.4147 11.5287L12.3573 12.4714L15.4147 9.41402C15.7898 9.03914 16.0006 8.53062 16.0009 8.0003C16.0011 7.46997 15.7907 6.96125 15.416 6.58602Z" fill="white"/>
</g>
</g>
<defs>
<clipPath id="clip0_90_169">
<rect width="16" height="16" fill="white"/>
</clipPath>
</defs>
</svg>
